<svg viewBox="0 0 1989 450" fill="none" xmlns="http://www.w3.org/2000/svg">
<path fill-rule="evenodd" clip-rule="evenodd" d="M392.971 32.0294L200 225L392.971 417.971C397.314 413.627 400 407.627 400 401V49C400 42.3726 397.314 36.3726 392.971 32.0294Z" fill="#60D5C4"/>
<path fill-rule="evenodd" clip-rule="evenodd" d="M392.971 32.0294L200 225L7.02942 32.0294C11.3726 27.6863 17.3726 25 24 25H376C382.627 25 388.627 27.6863 392.971 32.0294Z" fill="#71E9D8"/>
<path fill-rule="evenodd" clip-rule="evenodd" d="M7.02944 32.0294L200 225L7.02944 417.971C2.68629 413.627 0 407.627 0 401V49C0 42.3726 2.68629 36.3726 7.02944 32.0294Z" fill="#60D5C4"/>
<path fill-rule="evenodd" clip-rule="evenodd" d="M392.971 417.971L200 225L7.02942 417.971C11.3726 422.314 17.3726 425 24 425H376C382.627 425 388.627 422.314 392.971 417.971Z" fill="#71E9D8"/>
<rect x="50" y="75" width="300" height="300" rx="2" fill="#09B6A2"/>
<path d="M120.8 315.12C101.24 315.12 91.46 305.34 91.46 285.78V243.84C91.46 236.52 87.86 232.86 80.66 232.86C78.02 232.86 75.8 232.02 74 230.34C72.32 228.66 71.48 226.5 71.48 223.86C71.48 221.1 72.32 218.88 74 217.2C75.8 215.52 78.02 214.68 80.66 214.68C87.86 214.68 91.46 211.02 91.46 203.7V161.76C91.46 142.2 101.24 132.42 120.8 132.42C123.44 132.42 125.6 133.32 127.28 135.12C128.96 136.92 129.8 139.14 129.8 141.78C129.8 144.42 128.96 146.58 127.28 148.26C125.6 149.94 123.44 150.78 120.8 150.78C113.48 150.78 109.82 154.44 109.82 161.76V203.7C109.82 207.9 109.34 211.68 108.38 215.04C107.42 218.4 105.98 221.34 104.06 223.86C107.9 228.78 109.82 235.44 109.82 243.84V285.78C109.82 293.1 113.48 296.76 120.8 296.76C123.44 296.76 125.6 297.6 127.28 299.28C128.96 300.96 129.8 303.18 129.8 305.94C129.8 308.58 128.96 310.74 127.28 312.42C125.6 314.22 123.44 315.12 120.8 315.12ZM156.733 275.88C153.373 275.88 150.433 274.68 147.913 272.28C145.513 269.76 144.313 266.82 144.313 263.46C144.313 259.98 145.513 257.04 147.913 254.64C150.433 252.12 153.373 250.86 156.733 250.86C160.213 250.86 163.153 252.12 165.553 254.64C167.953 257.04 169.153 259.98 169.153 263.46C169.153 266.82 167.953 269.76 165.553 272.28C163.153 274.68 160.213 275.88 156.733 275.88ZM199.623 275.88C196.263 275.88 193.323 274.68 190.803 272.28C188.403 269.76 187.203 266.82 187.203 263.46C187.203 259.98 188.403 257.04 190.803 254.64C193.323 252.12 196.263 250.86 199.623 250.86C203.103 250.86 206.043 252.12 208.443 254.64C210.843 257.04 212.043 259.98 212.043 263.46C212.043 266.82 210.843 269.76 208.443 272.28C206.043 274.68 203.103 275.88 199.623 275.88ZM242.514 275.88C239.154 275.88 236.214 274.68 233.694 272.28C231.294 269.76 230.094 266.82 230.094 263.46C230.094 259.98 231.294 257.04 233.694 254.64C236.214 252.12 239.154 250.86 242.514 250.86C245.994 250.86 248.934 252.12 251.334 254.64C253.734 257.04 254.934 259.98 254.934 263.46C254.934 266.82 253.734 269.76 251.334 272.28C248.934 274.68 245.994 275.88 242.514 275.88ZM278.564 315.12C275.924 315.12 273.764 314.22 272.084 312.42C270.404 310.74 269.564 308.58 269.564 305.94C269.564 303.18 270.404 300.96 272.084 299.28C273.764 297.6 275.924 296.76 278.564 296.76C285.884 296.76 289.544 293.1 289.544 285.78V243.84C289.544 235.44 291.464 228.78 295.304 223.86C293.384 221.34 291.944 218.4 290.984 215.04C290.024 211.68 289.544 207.9 289.544 203.7V161.76C289.544 154.44 285.884 150.78 278.564 150.78C275.924 150.78 273.764 149.94 272.084 148.26C270.404 146.58 269.564 144.42 269.564 141.78C269.564 139.14 270.404 136.92 272.084 135.12C273.764 133.32 275.924 132.42 278.564 132.42C298.124 132.42 307.904 142.2 307.904 161.76V203.7C307.904 211.02 311.504 214.68 318.704 214.68C321.344 214.68 323.504 215.52 325.184 217.2C326.984 218.88 327.884 221.1 327.884 223.86C327.884 226.5 326.984 228.66 325.184 230.34C323.504 232.02 321.344 232.86 318.704 232.86C311.504 232.86 307.904 236.52 307.904 243.84V285.78C307.904 305.34 298.124 315.12 278.564 315.12Z" fill="white"/>
<path d="M592.2 363.6C574.68 363.6 558.96 359.28 545.04 350.64C531.36 342 520.44 330.24 512.28 315.36C504.36 300.48 500.4 283.8 500.4 265.32C500.4 246.84 504.36 230.16 512.28 215.28C520.44 200.4 531.36 188.64 545.04 180C558.96 171.36 574.68 167.04 592.2 167.04C609 167.04 624.24 170.52 637.92 177.48C651.84 184.2 662.4 193.44 669.6 205.2L649.08 230.4C645.24 224.88 640.32 219.84 634.32 215.28C628.32 210.72 621.96 207.12 615.24 204.48C608.52 201.84 602.04 200.52 595.8 200.52C584.28 200.52 573.96 203.4 564.84 209.16C555.96 214.68 548.88 222.36 543.6 232.2C538.32 242.04 535.68 253.08 535.68 265.32C535.68 277.56 538.44 288.6 543.96 298.44C549.48 308.04 556.8 315.72 565.92 321.48C575.04 327.24 585.12 330.12 596.16 330.12C602.64 330.12 608.88 329.04 614.88 326.88C621.12 324.72 627.12 321.48 632.88 317.16C638.64 312.84 644.04 307.56 649.08 301.32L669.6 326.52C661.92 337.32 650.88 346.2 636.48 353.16C622.32 360.12 607.56 363.6 592.2 363.6ZM789.536 363.6C771.056 363.6 754.496 359.4 739.856 351C725.456 342.36 714.056 330.72 705.656 316.08C697.256 301.2 693.056 284.28 693.056 265.32C693.056 246.36 697.256 229.56 705.656 214.92C714.056 200.04 725.456 188.4 739.856 180C754.496 171.36 771.056 167.04 789.536 167.04C807.776 167.04 824.096 171.36 838.496 180C853.136 188.4 864.656 200.04 873.056 214.92C881.456 229.56 885.656 246.36 885.656 265.32C885.656 284.28 881.456 301.2 873.056 316.08C864.656 330.72 853.136 342.36 838.496 351C824.096 359.4 807.776 363.6 789.536 363.6ZM789.536 329.76C800.816 329.76 810.896 327 819.776 321.48C828.656 315.72 835.616 308.04 840.656 298.44C845.696 288.6 848.096 277.56 847.856 265.32C848.096 252.84 845.696 241.8 840.656 232.2C835.616 222.36 828.656 214.68 819.776 209.16C810.896 203.64 800.816 200.88 789.536 200.88C778.256 200.88 768.056 203.76 758.936 209.52C750.056 215.04 743.096 222.72 738.056 232.56C733.016 242.16 730.616 253.08 730.856 265.32C730.616 277.56 733.016 288.6 738.056 298.44C743.096 308.04 750.056 315.72 758.936 321.48C768.056 327 778.256 329.76 789.536 329.76ZM1004.9 363.6C987.621 363.6 972.141 359.4 958.461 351C945.021 342.36 934.341 330.72 926.421 316.08C918.501 301.2 914.541 284.28 914.541 265.32C914.541 246.36 918.381 229.56 926.061 214.92C933.981 200.04 944.661 188.4 958.101 180C971.541 171.36 986.781 167.04 1003.82 167.04C1013.18 167.04 1022.18 168.6 1030.82 171.72C1039.7 174.6 1047.62 178.68 1054.58 183.96C1061.54 189 1066.94 194.64 1070.78 200.88C1074.86 206.88 1076.9 213 1076.9 219.24L1066.1 219.96V93.6H1103.18V360H1066.1V315H1073.3C1073.3 320.76 1071.38 326.52 1067.54 332.28C1063.7 337.8 1058.54 342.96 1052.06 347.76C1045.82 352.56 1038.5 356.4 1030.1 359.28C1021.94 362.16 1013.54 363.6 1004.9 363.6ZM1009.94 331.56C1021.22 331.56 1031.18 328.68 1039.82 322.92C1048.46 317.16 1055.18 309.36 1059.98 299.52C1065.02 289.44 1067.54 278.04 1067.54 265.32C1067.54 252.6 1065.02 241.32 1059.98 231.48C1055.18 221.4 1048.46 213.48 1039.82 207.72C1031.18 201.96 1021.22 199.08 1009.94 199.08C998.661 199.08 988.701 201.96 980.061 207.72C971.421 213.48 964.581 221.4 959.541 231.48C954.741 241.32 952.341 252.6 952.341 265.32C952.341 278.04 954.741 289.44 959.541 299.52C964.581 309.36 971.421 317.16 980.061 322.92C988.701 328.68 998.661 331.56 1009.94 331.56ZM1242.42 363.6C1222.98 363.6 1205.7 359.52 1190.58 351.36C1175.7 342.96 1163.94 331.56 1155.3 317.16C1146.9 302.76 1142.7 286.2 1142.7 267.48C1142.7 252.6 1145.1 239.04 1149.9 226.8C1154.7 214.56 1161.3 204 1169.7 195.12C1178.34 186 1188.54 179.04 1200.3 174.24C1212.3 169.2 1225.26 166.68 1239.18 166.68C1251.42 166.68 1262.82 169.08 1273.38 173.88C1283.94 178.44 1293.06 184.8 1300.74 192.96C1308.66 201.12 1314.66 210.84 1318.74 222.12C1323.06 233.16 1325.1 245.28 1324.86 258.48L1324.5 274.32H1170.06L1161.78 244.8H1292.46L1287.06 250.92V242.28C1286.34 234.36 1283.7 227.28 1279.14 221.04C1274.58 214.8 1268.82 209.88 1261.86 206.28C1254.9 202.68 1247.34 200.88 1239.18 200.88C1226.22 200.88 1215.3 203.4 1206.42 208.44C1197.54 213.24 1190.82 220.44 1186.26 230.04C1181.7 239.4 1179.42 251.04 1179.42 264.96C1179.42 278.16 1182.18 289.68 1187.7 299.52C1193.22 309.12 1201.02 316.56 1211.1 321.84C1221.18 327.12 1232.82 329.76 1246.02 329.76C1255.38 329.76 1264.02 328.2 1271.94 325.08C1280.1 321.96 1288.86 316.32 1298.22 308.16L1316.94 334.44C1311.18 340.2 1304.1 345.24 1295.7 349.56C1287.54 353.88 1278.78 357.36 1269.42 360C1260.3 362.4 1251.3 363.6 1242.42 363.6ZM1371.28 360V171H1408.36V360H1371.28ZM1389.28 129.24C1381.36 129.24 1375.24 127.2 1370.92 123.12C1366.6 119.04 1364.44 113.28 1364.44 105.84C1364.44 98.88 1366.6 93.24 1370.92 88.92C1375.48 84.6 1381.6 82.44 1389.28 82.44C1397.2 82.44 1403.32 84.48 1407.64 88.56C1411.96 92.64 1414.12 98.4 1414.12 105.84C1414.12 112.8 1411.84 118.44 1407.28 122.76C1402.96 127.08 1396.96 129.24 1389.28 129.24ZM1531.6 363.6C1518.16 363.6 1506.4 360.48 1496.32 354.24C1486.48 348 1478.8 339.24 1473.28 327.96C1468 316.68 1465.36 303.24 1465.36 287.64V171H1502.44V277.56C1502.44 288.6 1504.12 298.2 1507.48 306.36C1511.08 314.28 1516.12 320.4 1522.6 324.72C1529.32 329.04 1537.36 331.2 1546.72 331.2C1553.68 331.2 1560.04 330.12 1565.8 327.96C1571.56 325.56 1576.48 322.32 1580.56 318.24C1584.88 314.16 1588.24 309.24 1590.64 303.48C1593.04 297.72 1594.24 291.48 1594.24 284.76V171H1631.32V360H1594.24V320.4L1600.72 316.08C1597.84 324.96 1592.92 333 1585.96 340.2C1579.24 347.4 1571.2 353.16 1561.84 357.48C1552.48 361.56 1542.4 363.6 1531.6 363.6ZM1682.61 360V171H1720.05V211.32L1713.21 215.64C1715.13 209.4 1718.13 203.4 1722.21 197.64C1726.53 191.88 1731.69 186.84 1737.69 182.52C1743.93 177.96 1750.53 174.36 1757.49 171.72C1764.69 169.08 1772.01 167.76 1779.45 167.76C1790.25 167.76 1799.73 169.56 1807.89 173.16C1816.05 176.76 1822.77 182.16 1828.05 189.36C1833.33 196.56 1837.17 205.56 1839.57 216.36L1833.81 214.92L1836.33 208.8C1838.97 203.28 1842.57 198.12 1847.13 193.32C1851.93 188.28 1857.33 183.84 1863.33 180C1869.33 176.16 1875.69 173.16 1882.41 171C1889.13 168.84 1895.73 167.76 1902.21 167.76C1916.37 167.76 1928.01 170.64 1937.13 176.4C1946.49 182.16 1953.45 190.92 1958.01 202.68C1962.81 214.44 1965.21 229.08 1965.21 246.6V360H1927.77V248.76C1927.77 237.96 1926.33 229.2 1923.45 222.48C1920.81 215.52 1916.73 210.36 1911.21 207C1905.69 203.64 1898.61 201.96 1889.97 201.96C1883.25 201.96 1876.89 203.16 1870.89 205.56C1865.13 207.72 1860.09 210.84 1855.77 214.92C1851.45 219 1848.09 223.8 1845.69 229.32C1843.29 234.6 1842.09 240.48 1842.09 246.96V360H1804.65V248.04C1804.65 238.2 1803.21 229.92 1800.33 223.2C1797.45 216.24 1793.25 210.96 1787.73 207.36C1782.21 203.76 1775.49 201.96 1767.57 201.96C1760.85 201.96 1754.61 203.16 1748.85 205.56C1743.09 207.72 1738.05 210.84 1733.73 214.92C1729.41 218.76 1726.05 223.44 1723.65 228.96C1721.25 234.24 1720.05 240 1720.05 246.24V360H1682.61Z" fill="#09B6A2"/>
</svg>
