<svg width="512" height="512" viewBox="0 0 512 512" fill="none" xmlns="http://www.w3.org/2000/svg">
    <g clip-path="url(#clip0_480_1377)">
        <g clip-path="url(#clip1_480_1377)">
            <mask id="mask0_480_1377" style="mask-type:alpha" maskUnits="userSpaceOnUse" x="0" y="0" width="512"
                height="512">
                <path
                    d="M0 41.2893C0 18.4858 18.4863 0 41.2903 0H470.71C493.514 0 512 18.4859 512 41.2893V470.698C512 493.502 493.514 511.988 470.71 511.988H41.2903C18.4863 511.988 0 493.502 0 470.698V41.2893Z"
                    fill="#D9D9D9" />
            </mask>
            <g mask="url(#mask0_480_1377)">
                <path d="M256 255.994L0 511.988V0L256 255.994Z" fill="#60D5C4" />
                <path d="M256 255.994L512 511.988V0L256 255.994Z" fill="#60D5C4" />
                <path d="M256 255.994L512 511.988L0 511.988L256 255.994Z" fill="#71E9D8" />
                <path d="M256 255.994L512 0L0 0L256 255.994Z" fill="#71E9D8" />
                <path
                    d="M443.403 66.0629H68.597C67.1983 66.0629 66.0645 67.1967 66.0645 68.5953V443.392C66.0645 444.791 67.1983 445.925 68.597 445.925H443.403C444.802 445.925 445.935 444.791 445.935 443.392V68.5953C445.935 67.1967 444.802 66.0629 443.403 66.0629Z"
                    fill="#09B6A2" />
                <path
                    d="M160.054 365.958C135.879 365.958 123.791 354.104 123.791 330.396V279.561C123.791 270.689 119.342 266.253 110.443 266.253C107.18 266.253 104.436 265.235 102.211 263.198C100.135 261.162 99.0968 258.544 99.0968 255.344C99.0968 251.999 100.135 249.308 102.211 247.272C104.436 245.236 107.18 244.217 110.443 244.217C119.342 244.217 123.791 239.781 123.791 230.909V180.075C123.791 156.367 135.879 144.513 160.054 144.513C163.317 144.513 165.987 145.603 168.063 147.785C170.139 149.967 171.178 152.658 171.178 155.858C171.178 159.057 170.139 161.676 168.063 163.712C165.987 165.748 163.317 166.766 160.054 166.766C151.007 166.766 146.483 171.202 146.483 180.075V230.909C146.483 236 145.89 240.581 144.703 244.654C143.517 248.726 141.737 252.29 139.364 255.344C144.11 261.308 146.483 269.38 146.483 279.561V330.396C146.483 339.268 151.007 343.704 160.054 343.704C163.317 343.704 165.987 344.722 168.063 346.759C170.139 348.795 171.178 351.486 171.178 354.831C171.178 358.031 170.139 360.649 168.063 362.685C165.987 364.867 163.317 365.958 160.054 365.958V365.958ZM204.465 318.396C200.313 318.396 196.679 316.942 193.564 314.033C190.598 310.978 189.115 307.415 189.115 303.342C189.115 299.124 190.598 295.561 193.564 292.652C196.679 289.597 200.313 288.07 204.465 288.07C208.767 288.07 212.4 289.597 215.367 292.652C218.333 295.561 219.816 299.124 219.816 303.342C219.816 307.415 218.333 310.978 215.367 314.033C212.4 316.942 208.767 318.396 204.465 318.396ZM257.475 318.396C253.323 318.396 249.689 316.942 246.574 314.033C243.608 310.978 242.125 307.415 242.125 303.342C242.125 299.124 243.608 295.561 246.574 292.652C249.689 289.597 253.323 288.07 257.475 288.07C261.777 288.07 265.41 289.597 268.377 292.652C271.343 295.561 272.826 299.124 272.826 303.342C272.826 307.415 271.343 310.978 268.377 314.033C265.41 316.942 261.777 318.396 257.475 318.396ZM310.487 318.396C306.334 318.396 302.7 316.942 299.586 314.033C296.619 310.978 295.136 307.415 295.136 303.342C295.136 299.124 296.619 295.561 299.586 292.652C302.7 289.597 306.334 288.07 310.487 288.07C314.788 288.07 318.422 289.597 321.388 292.652C324.354 295.561 325.837 299.124 325.837 303.342C325.837 307.415 324.354 310.978 321.388 314.033C318.422 316.942 314.788 318.396 310.487 318.396ZM355.043 365.958C351.78 365.958 349.11 364.867 347.034 362.685C344.957 360.649 343.919 358.031 343.919 354.831C343.919 351.486 344.957 348.795 347.034 346.759C349.11 344.722 351.78 343.704 355.043 343.704C364.09 343.704 368.614 339.268 368.614 330.396V279.561C368.614 269.38 370.987 261.308 375.733 255.344C373.36 252.29 371.58 248.726 370.393 244.654C369.207 240.581 368.614 236 368.614 230.909V180.075C368.614 171.202 364.09 166.766 355.043 166.766C351.78 166.766 349.11 165.748 347.034 163.712C344.957 161.676 343.919 159.057 343.919 155.858C343.919 152.658 344.957 149.967 347.034 147.785C349.11 145.603 351.78 144.513 355.043 144.513C379.218 144.513 391.306 156.367 391.306 180.075V230.909C391.306 239.781 395.755 244.217 404.654 244.217C407.917 244.217 410.587 245.236 412.663 247.272C414.888 249.308 416 251.999 416 255.344C416 258.544 414.888 261.162 412.663 263.198C410.587 265.235 407.917 266.253 404.654 266.253C395.755 266.253 391.306 270.689 391.306 279.561V330.396C391.306 354.104 379.218 365.958 355.043 365.958V365.958Z"
                    fill="white" />
            </g>
        </g>
    </g>
    <defs>
        <clipPath id="clip0_480_1377">
            <rect width="512" height="512" fill="white" />
        </clipPath>
        <clipPath id="clip1_480_1377">
            <rect width="512" height="512" fill="white" />
        </clipPath>
    </defs>
</svg>